<?xml version="1.0" encoding="utf-8"?>
<!-- Generator: Adobe Illustrator 25.4.1, SVG Export Plug-In . SVG Version: 6.00 Build 0)  -->
<svg version="1.1" id="Layer_1" xmlns="http://www.w3.org/2000/svg" xmlns:xlink="http://www.w3.org/1999/xlink" x="0px" y="0px"
	 viewBox="0 0 74.7 12.1" style="enable-background:new 0 0 74.7 12.1;" xml:space="preserve">
<style type="text/css">
	.st0{fill:#E13404;}
</style>
<g id="Claro-video">
	<g id="_x32_88057e3-5a21-413b-9782-83eed6494672-ClaroVideo-Copy" transform="translate(0.000000, 2.000000)">
		<polygon id="Path" points="43.9,10 42.3,10 39.2,1.7 41.4,1.7 43.1,6.8 44.8,1.7 47,1.7 		"/>
		<path id="Shape" d="M48.6,0.6c-0.7,0-1.3-0.6-1.3-1.3S47.9-2,48.6-2c0.7,0,1.3,0.6,1.3,1.3S49.3,0.6,48.6,0.6z M47.6,10V1.7h2.1
			V10H47.6z"/>
		<path id="Shape_00000150783916947261412600000000782297630042314629_" d="M56,10V9.2c-0.6,0.6-1.2,0.9-2.1,0.9
			c-0.8,0-1.6-0.3-2.1-0.8C51,8.5,51,7.1,51,5.8s0-2.7,0.9-3.5c0.5-0.5,1.2-0.8,2-0.8c0.9,0,1.5,0.2,2,0.8v-3.8H58V10H56z M54.5,3.4
			c-1.3,0-1.4,1-1.4,2.4s0.2,2.4,1.4,2.4c1.3,0,1.4-1,1.4-2.4C55.9,4.5,55.8,3.4,54.5,3.4z"/>
		<path id="Shape_00000157294284727902235250000003304549047674523308_" d="M61.4,6.5c0,1.1,0.7,1.9,1.8,1.9c0.9,0,1.4-0.3,1.9-0.8
			l1.3,1.2c-0.9,0.9-1.7,1.3-3.2,1.3c-2,0-3.9-0.9-3.9-4.3c0-2.7,1.5-4.3,3.6-4.3c2.3,0,3.6,1.7,3.6,4v0.9L61.4,6.5L61.4,6.5z
			 M64.4,4.2c-0.2-0.5-0.7-0.9-1.4-0.9c-0.7,0-1.2,0.4-1.4,0.9c-0.1,0.3-0.2,0.5-0.2,0.9h3.2C64.5,4.7,64.5,4.5,64.4,4.2z"/>
		<path id="Shape_00000075868241604089852580000010673101256996391606_" d="M73.7,9.1c-0.5,0.5-1.4,1-2.6,1s-2.1-0.5-2.6-1
			c-0.8-0.8-0.9-1.7-0.9-3.3c0-1.5,0.2-2.5,0.9-3.2c0.5-0.5,1.4-1,2.6-1s2.1,0.5,2.6,1c0.8,0.8,0.9,1.7,0.9,3.2
			C74.7,7.4,74.5,8.3,73.7,9.1z M72.1,3.8c-0.2-0.2-0.6-0.4-1-0.4c-0.4,0-0.7,0.1-1,0.4c-0.4,0.4-0.5,1.2-0.5,2c0,0.9,0,1.6,0.5,2
			c0.2,0.2,0.5,0.4,1,0.4c0.4,0,0.7-0.1,1-0.4c0.4-0.4,0.5-1.2,0.5-2C72.6,5,72.5,4.3,72.1,3.8z"/>
		<path id="Shape_00000124150606690176738790000016476719286841701309_" class="st0" d="M34.6,7.3C34.2,7.8,33.6,8,33,8
			c-0.6,0-1.2-0.2-1.6-0.7c-0.4-0.5-0.7-1-0.7-1.6c0-0.7,0.2-1.2,0.7-1.7c0.4-0.5,1-0.7,1.6-0.7c0.6,0,1.2,0.2,1.7,0.7
			c0.4,0.4,0.6,1,0.7,1.7C35.3,6.3,35.1,6.8,34.6,7.3z M36.1,2.5c-0.9-0.9-1.9-1.3-3.1-1.3c-1.2,0-2.2,0.4-3.1,1.3
			c-0.9,0.9-1.3,1.9-1.3,3.1c0,1.2,0.4,2.3,1.3,3.1c0.8,0.9,1.9,1.3,3.1,1.3c1.2,0,2.2-0.4,3.1-1.3c0.8-0.8,1.3-1.9,1.3-3.1
			C37.4,4.5,36.9,3.4,36.1,2.5z"/>
		<path id="Path_00000037682063542939692200000001712823235886579591_" class="st0" d="M5.4-0.9c-1.5,0-2.8,0.5-3.8,1.6
			C0.5,1.8,0,3,0,4.5C0,6,0.5,7.4,1.6,8.4c1,1,2.3,1.6,3.8,1.6c1.2,0,2.3-0.4,3.3-1.1c0.9-0.8,1.6-1.7,1.9-2.9H8.4
			C8.1,6.6,7.7,7,7.2,7.4C6.6,7.7,6,7.9,5.4,7.9c-0.9,0-1.7-0.3-2.4-1c-0.7-0.7-1-1.5-1-2.4c0-0.9,0.3-1.7,1-2.4
			c0.6-0.6,1.4-1,2.4-1c0.6,0,1.2,0.2,1.8,0.5c0.5,0.3,0.9,0.8,1.2,1.4h2.2C10.3,1.9,9.6,1,8.7,0.2C7.7-0.5,6.6-0.9,5.4-0.9z"/>
		<path id="Shape_00000054949337330986579390000007163464385805431467_" class="st0" d="M19.6,6L20,5.8v0.8c0,0.7-0.2,1.2-0.6,1.5
			c-0.4,0.3-0.8,0.4-1.3,0.4c-0.3,0-0.5-0.1-0.7-0.2C17.1,8.1,17,7.9,17,7.5c0-0.4,0.2-0.7,0.5-1c0.2-0.1,0.5-0.2,1-0.3L19.6,6z
			 M18.7,1.2c-1.4,0-2.4,0.4-3,1.1c-0.4,0.5-0.5,1.1-0.6,1.8h2.1c0-0.4,0.2-0.6,0.3-0.8C17.8,3.1,18.1,3,18.6,3c0.4,0,0.8,0.1,1,0.2
			C19.9,3.3,20,3.6,20,3.9c0,0.3-0.2,0.5-0.5,0.6l-1.6,0.3c-0.7,0.1-1.3,0.3-1.8,0.5C15.3,5.8,15,6.6,15,7.7c0,0.7,0.2,1.4,0.7,1.8
			c0.4,0.4,1,0.6,1.7,0.6c1.1,0,2.1-0.3,2.7-0.9V10h2.1V3.9c0-1-0.4-1.7-1-2.1C20.4,1.4,19.6,1.2,18.7,1.2z"/>
		<polygon id="Path_00000026880648957458697960000004876367317666811028_" class="st0" points="13.7,-0.9 11.6,-0.9 11.6,10 
			13.7,10 		"/>
		<path id="Path_00000158017606935102755410000005978065670631146659_" class="st0" d="M27.1,1.5c-0.6,0.2-1.1,0.6-1.5,1.2V1.7l-2,0
			V10h2.1V6c0-0.7,0.1-1.2,0.3-1.5c0.1-0.3,0.4-0.6,0.7-0.8c0.4-0.2,0.7-0.4,1.1-0.4l0.6,0l0-2.1l-0.5,0L27.1,1.5z"/>
	</g>
</g>
</svg>
