<?xml version="1.0" encoding="UTF-8"?>
<svg width="73px" height="16px" viewBox="0 0 73 16" version="1.1" xmlns="http://www.w3.org/2000/svg" xmlns:xlink="http://www.w3.org/1999/xlink">
    <title>Claro club</title>
    <g id="Claro-club" stroke="none" stroke-width="1" fill="none" fill-rule="evenodd">
        <g id="f379fe17-db6e-4980-b141-67214bbdffcc-ClaroClub-Copy" transform="translate(0.000000, 2.000000)" fill-rule="nonzero">
            <path d="M35.3716,9.2096 C34.9281,9.678 34.3825,9.8972 33.7372,9.8972 C33.1119,9.8972 32.5662,9.678 32.1203,9.2096 C31.6743,8.7437 31.4326,8.1981 31.4326,7.5702 C31.4326,6.9025 31.6743,6.3569 32.1203,5.91094 C32.5637,5.44753 33.1119,5.2233 33.7372,5.24323 C34.3825,5.2233 34.9281,5.44753 35.3915,5.91094 C35.8176,6.3544 36.0393,6.9025 36.0592,7.5702 C36.0393,8.1981 35.8176,8.7462 35.3716,9.2096 Z M36.8465,4.43601 C35.977,3.56649 34.9281,3.14046 33.7347,3.14046 C32.5413,3.14046 31.5124,3.56649 30.6653,4.43601 C29.7958,5.30552 29.3722,6.3569 29.3722,7.5702 C29.3722,8.7836 29.7958,9.8349 30.6653,10.6845 C31.5124,11.5565 32.5438,12 33.7347,12 C34.9256,12 35.977,11.5565 36.8465,10.6845 C37.6936,9.8349 38.1196,8.7836 38.1196,7.5702 C38.1196,6.3569 37.6961,5.30801 36.8465,4.43601 Z" id="Shape" fill="#E13404"></path>
            <path d="M6.07979,0.97789 C4.565,0.95796 3.31181,1.48366 2.26291,2.5749 C1.1916,3.64622 0.668396,4.92184 0.668396,6.4391 C0.668396,7.934 1.1916,9.2519 2.26291,10.3233 C3.31181,11.3747 4.56749,11.9028 6.07979,11.9028 C7.29312,11.9028 8.4043,11.5366 9.37347,10.7892 C10.3227,10.0218 10.9505,9.0701 11.2719,7.8966 L9.06951,7.8966 C8.78798,8.4622 8.38437,8.9256 7.87861,9.2918 C7.31305,9.6356 6.72756,9.8175 6.07979,9.8175 C5.15049,9.8175 4.36319,9.4737 3.71542,8.8259 C3.05021,8.1582 2.72632,7.3709 2.74625,6.4391 C2.72632,5.50982 3.05021,4.72003 3.71542,4.05233 C4.36319,3.40455 5.15049,3.06073 6.07979,3.06073 C6.72756,3.06073 7.31305,3.24261 7.87861,3.60636 C8.38437,3.95018 8.78798,4.43601 9.06951,5.00156 L11.2719,5.00156 C10.9505,3.8281 10.3227,2.85644 9.37347,2.1115 C8.4043,1.34164 7.29312,0.95796 6.07979,0.97789 Z" id="Path" fill="#E13404"></path>
            <path d="M20.3034,7.8742 L20.707,7.6549 L20.707,8.5045 C20.707,9.2295 20.5052,9.7378 20.1215,10.0193 C19.7179,10.3008 19.2919,10.4453 18.8085,10.4453 C18.5071,10.4453 18.2629,10.3631 18.0611,10.2037 C17.8618,10.0193 17.7571,9.7577 17.7571,9.374 C17.7571,8.9505 17.9216,8.644 18.2629,8.4223 C18.4647,8.3002 18.8085,8.2006 19.252,8.1408 L20.3034,7.8742 Z M19.4139,3.12301 C17.9988,3.10308 17.0097,3.48676 16.4442,4.23668 C16.0829,4.70258 15.901,5.31049 15.8387,6.0778 L17.9415,6.0778 C17.9789,5.7141 18.1035,5.46994 18.2455,5.308 C18.4672,5.02397 18.8309,4.87947 19.3566,4.90438 C19.8001,4.88196 20.1439,4.96418 20.3856,5.10619 C20.6273,5.22578 20.7294,5.46994 20.7494,5.81376 C20.7494,6.0953 20.5874,6.322 20.2635,6.4615 L18.6466,6.7231 C17.8992,6.8253 17.2937,7.0047 16.8278,7.2712 C16.0405,7.7347 15.6569,8.4846 15.6768,9.5584 C15.6569,10.3033 15.8985,10.9137 16.3819,11.3572 C16.8054,11.7234 17.3909,11.9228 18.101,11.9452 C19.252,11.9252 20.1589,11.6412 20.8067,11.0732 L20.8067,11.9452 L22.9094,11.9452 L22.9094,5.75396 C22.9094,4.74244 22.5432,4.03487 21.858,3.67112 C21.1305,3.28495 20.3233,3.10058 19.4139,3.12301 Z" id="Shape" fill="#E13404"></path>
            <polygon id="Path" fill="#E13404" points="14.4435 0.97789 12.3433 0.97789 12.3433 11.9427 14.4435 11.9427"></polygon>
            <path d="M27.8151,3.42448 C27.252,3.64871 26.7462,4.03239 26.3202,4.61788 L26.3202,3.54656 L24.3196,3.52663 L24.3196,11.9427 L26.3999,11.9427 L26.3999,7.9165 C26.3999,7.2289 26.4821,6.7431 26.664,6.4391 C26.8035,6.1152 27.0676,5.85363 27.3915,5.6294 C27.7553,5.38524 28.1365,5.26316 28.5426,5.26316 L29.1878,5.30551 L29.1679,3.16039 L28.6223,3.20025 L27.8151,3.42448 Z" id="Path" fill="#E13404"></path>
            <path d="M44.7064,10.9308 C44.2903,11.1052 43.812,11.1949 43.2713,11.1949 C42.8802,11.1949 42.4765,11.1351 42.0605,11.013 C41.6444,10.8934 41.2657,10.6792 40.9269,10.3727 C40.588,10.0663 40.309,9.6552 40.0848,9.1395 C39.863,8.6237 39.7509,7.9685 39.7509,7.1762 C39.7509,6.3839 39.863,5.73119 40.0848,5.21297 C40.3065,4.69724 40.588,4.28865 40.9269,3.98718 C41.2657,3.68572 41.6419,3.47644 42.0605,3.35436 C42.4765,3.23477 42.8802,3.17497 43.2713,3.17497 C43.812,3.17497 44.2903,3.25969 44.7064,3.43159 C45.1225,3.60101 45.5061,3.86759 45.8574,4.22885 L44.5345,5.5518 C44.3352,5.33007 44.1383,5.17311 43.949,5.07843 C43.7596,4.98376 43.5329,4.93642 43.2738,4.93642 C42.8129,4.93642 42.4417,5.10584 42.1601,5.44716 C42.0106,5.63651 41.8985,5.86822 41.8288,6.1398 C41.759,6.4113 41.7241,6.7552 41.7241,7.1762 C41.7241,7.9785 41.8686,8.559 42.1601,8.9202 C42.4417,9.2615 42.8104,9.431 43.2738,9.431 C43.5354,9.431 43.7596,9.3836 43.949,9.289 C44.1383,9.1943 44.3352,9.0348 44.5345,8.8156 L45.8574,10.1236 C45.5036,10.4848 45.1225,10.7539 44.7064,10.9308 Z" id="Path" fill="#000000"></path>
            <path d="M49.4351,11.1027 C49.0315,11.1027 48.6852,11.0379 48.3912,10.9059 C48.0972,10.7763 47.858,10.6044 47.6712,10.3952 C47.4843,10.1834 47.3473,9.9467 47.2626,9.6801 C47.1779,9.4135 47.133,9.142 47.133,8.8604 L47.133,0.39453 L49.1038,0.39453 L49.1038,8.7408 C49.1038,8.9725 49.1561,9.1469 49.2607,9.2665 C49.3654,9.3861 49.5447,9.4484 49.7939,9.4484 L50.5463,9.4484 L50.5463,11.1027 L49.4351,11.1027 Z" id="Path" fill="#000000"></path>
            <path d="M56.4585,11.1027 L56.4585,10.3802 C56.1994,10.6518 55.8979,10.8536 55.5591,10.9906 C55.2202,11.1251 54.8689,11.1949 54.5102,11.1949 C54.119,11.1949 53.7702,11.1351 53.4613,11.013 C53.1523,10.8934 52.8858,10.7215 52.6665,10.5023 C52.3476,10.1809 52.1333,9.8371 52.0287,9.4708 C51.9241,9.1046 51.8717,8.706 51.8717,8.2749 L51.8717,3.26715 L53.8425,3.26715 L53.8425,8.0059 C53.8425,8.2774 53.8798,8.5017 53.9546,8.681 C54.0293,8.8629 54.129,9.0074 54.2511,9.117 C54.3756,9.2267 54.5127,9.3064 54.6671,9.3562 C54.8216,9.406 54.9711,9.431 55.1206,9.431 C55.2701,9.431 55.4195,9.406 55.574,9.3562 C55.7285,9.3064 55.8655,9.2267 55.9901,9.117 C56.1147,9.0074 56.2143,8.8604 56.294,8.681 C56.3738,8.5017 56.4136,8.2749 56.4136,8.0059 L56.4136,3.26715 L58.3844,3.26715 L58.3844,11.1027 L56.4585,11.1027 Z" id="Path" fill="#000000"></path>
            <path d="M66.9723,8.0806 C66.9624,8.392 66.9325,8.6935 66.8826,8.9825 C66.8328,9.274 66.7531,9.5481 66.6435,9.8097 C66.5338,10.0688 66.3844,10.2955 66.195,10.4848 C65.9758,10.7066 65.6967,10.8785 65.3629,11.0031 C65.029,11.1276 64.6702,11.1924 64.2916,11.1924 C63.8705,11.1924 63.5092,11.1301 63.2053,11.0031 C62.9013,10.8785 62.6123,10.6642 62.3432,10.3628 L62.3432,11.1002 L60.4323,11.1002 L60.4323,0.39453 L62.403,0.39453 L62.403,3.95977 C62.6622,3.66828 62.9437,3.46647 63.2427,3.35186 C63.5416,3.23726 63.8929,3.17996 64.2916,3.17996 C64.6702,3.17996 65.029,3.24224 65.3629,3.36681 C65.6967,3.49138 65.9758,3.66579 66.195,3.88503 C66.3844,4.08435 66.5338,4.31356 66.646,4.57018 C66.7556,4.82679 66.8353,5.09836 66.8851,5.38986 C66.935,5.68136 66.9649,5.97784 66.9748,6.2843 C66.9848,6.5907 66.9898,6.8897 66.9898,7.1787 C66.9898,7.4677 66.9798,7.7692 66.9723,8.0806 Z M64.9717,6.2893 C64.9418,6.0177 64.882,5.7835 64.7923,5.5817 C64.7026,5.38238 64.5731,5.22293 64.3987,5.10832 C64.2243,4.99372 63.9951,4.93642 63.7061,4.93642 C63.4195,4.93642 63.1878,4.99372 63.0159,5.10832 C62.8415,5.22293 62.712,5.38238 62.6223,5.5817 C62.5326,5.78101 62.4728,6.0177 62.4429,6.2893 C62.413,6.5608 62.3981,6.8548 62.3981,7.1762 C62.3981,7.4976 62.413,7.7966 62.4429,8.0706 C62.4728,8.3472 62.5326,8.5839 62.6223,8.7857 C62.712,8.9875 62.8415,9.1444 63.0159,9.2591 C63.1903,9.3737 63.4195,9.4335 63.7061,9.4335 C63.9951,9.4335 64.2243,9.3762 64.3987,9.2591 C64.5731,9.1444 64.7026,8.985 64.7923,8.7857 C64.882,8.5864 64.9418,8.3472 64.9717,8.0706 C65.0016,7.7941 65.0166,7.4976 65.0166,7.1762 C65.0166,6.8573 65.0016,6.5608 64.9717,6.2893 Z" id="Shape" fill="#000000"></path>
        </g>
    </g>
</svg>