<svg width="22" height="22" viewBox="0 0 22 22" fill="none" xmlns="http://www.w3.org/2000/svg">
<circle cx="10.625" cy="11" r="10" stroke="white" stroke-linecap="round"/>
<path d="M10.1473 6.29591C10.2925 5.82607 10.9575 5.82607 11.1027 6.29591L11.9915 9.1722C12.0563 9.3817 12.25 9.52457 12.4692 9.52457H15.3969C15.8751 9.52457 16.0804 10.1316 15.7004 10.4219L13.2894 12.2637C13.1229 12.3909 13.0534 12.6084 13.1153 12.8086L14.0259 15.7554C14.1696 16.2205 13.6315 16.5959 13.2446 16.3004L10.9285 14.531C10.7493 14.3941 10.5007 14.3941 10.3215 14.531L8.00538 16.3004C7.61854 16.5959 7.08041 16.2205 7.22414 15.7554L8.13474 12.8086C8.19661 12.6084 8.12707 12.3909 7.96056 12.2637L5.54962 10.4219C5.16956 10.1316 5.37488 9.52457 5.85315 9.52457H8.78076C9.00003 9.52457 9.19373 9.3817 9.25847 9.1722L10.1473 6.29591Z" fill="white"/>
</svg>
